<?xml version="1.0" encoding="utf-8"?>
<!DOCTYPE svg PUBLIC "-//W3C//DTD SVG 20010904//EN" "http://www.w3.org/TR/2001/REC-SVG-20010904/DTD/svg10.dtd">
<svg version="1.0" xmlns="http://www.w3.org/2000/svg" width="602pt" height="563pt" viewBox="0 0 602 563" style="" preserveAspectRatio="xMidYMid meet">
<g fill="#0153D8FE" stroke="#0153D8FE">
<path d="M 181.500 21.373 C 179.300 21.993 177.050 22.778 176.500 23.119 C 175.950 23.459 173.700 24.059 171.500 24.453 C 169.300 24.846 166.150 25.979 164.500 26.970 C 162.850 27.961 160.384 29.112 159.019 29.527 C 156.520 30.287 151.385 33.565 149.511 35.597 C 148.955 36.200 146.925 37.634 145.000 38.784 C 140.054 41.738 128.000 55.235 128.000 57.819 C 128.000 58.334 127.255 59.373 126.345 60.128 C 125.435 60.882 124.058 62.850 123.284 64.500 C 122.511 66.150 120.555 69.750 118.938 72.500 C 117.320 75.250 115.595 78.418 115.103 79.541 C 114.611 80.664 113.531 82.145 112.702 82.832 C 111.874 83.520 110.891 85.301 110.517 86.791 C 110.143 88.281 108.974 90.305 107.919 91.289 C 106.863 92.273 106.000 93.713 106.000 94.489 C 106.000 95.953 100.552 104.541 99.024 105.485 C 98.545 105.781 97.869 107.321 97.520 108.908 C 97.172 110.494 96.012 112.584 94.943 113.551 C 93.874 114.519 93.000 116.108 93.000 117.084 C 93.000 118.059 92.220 119.637 91.268 120.589 C 90.315 121.542 88.750 123.937 87.789 125.911 C 85.901 129.791 84.481 132.134 81.750 135.873 C 80.788 137.191 80.000 138.932 80.000 139.741 C 80.000 140.549 78.875 142.548 77.500 144.182 C 76.125 145.816 75.000 147.869 75.000 148.743 C 75.000 149.617 74.314 151.045 73.475 151.916 C 71.493 153.975 67.000 160.869 67.000 161.850 C 67.000 162.269 65.875 164.136 64.500 166.000 C 63.125 167.864 62.000 170.131 62.000 171.039 C 62.000 171.947 61.100 173.505 60.000 174.500 C 58.900 175.495 58.000 176.855 58.000 177.520 C 58.000 178.186 57.161 179.803 56.135 181.115 C 55.109 182.427 52.841 186.184 51.095 189.465 C 49.349 192.746 47.264 196.156 46.460 197.044 C 45.657 197.931 45.000 199.322 45.000 200.134 C 45.000 200.947 43.875 203.136 42.500 205.000 C 41.125 206.864 40.000 208.828 40.000 209.366 C 40.000 209.903 39.252 211.169 38.339 212.178 C 36.362 214.363 34.736 217.087 32.171 222.514 C 31.127 224.722 29.537 227.140 28.637 227.887 C 27.736 228.634 27.000 230.292 27.000 231.573 C 27.000 232.853 26.389 234.260 25.643 234.700 C 23.790 235.792 18.005 247.019 18.002 249.527 C 18.001 250.643 17.245 252.633 16.322 253.951 C 11.905 260.256 11.733 299.011 16.094 305.210 C 17.142 306.700 18.021 309.175 18.047 310.710 C 18.073 312.244 19.653 316.200 21.558 319.500 C 23.463 322.800 25.665 326.886 26.453 328.580 C 27.240 330.273 28.557 332.217 29.378 332.899 C 30.199 333.580 31.154 335.426 31.500 337.000 C 31.846 338.574 32.765 340.390 33.544 341.036 C 34.902 342.164 36.015 344.052 40.154 352.250 C 41.195 354.313 42.450 356.000 42.944 356.000 C 43.437 356.000 44.127 357.303 44.477 358.896 C 44.827 360.489 45.988 362.584 47.057 363.551 C 48.126 364.519 49.000 366.053 49.000 366.961 C 49.000 367.869 50.125 370.136 51.500 372.000 C 52.875 373.864 54.002 375.864 54.004 376.444 C 54.007 377.025 55.807 379.872 58.004 382.770 C 60.202 385.669 62.000 388.866 62.000 389.874 C 62.000 390.883 63.125 392.922 64.500 394.405 C 65.875 395.889 67.001 397.642 67.001 398.302 C 67.002 398.961 68.802 402.092 71.001 405.261 C 73.201 408.429 75.000 411.694 75.000 412.517 C 75.000 413.340 76.125 414.991 77.500 416.187 C 78.875 417.382 80.000 419.335 80.000 420.525 C 80.000 421.716 80.874 423.481 81.943 424.449 C 83.012 425.416 84.173 427.511 84.523 429.104 C 84.873 430.697 85.497 432.000 85.910 432.000 C 86.324 432.000 87.301 433.224 88.081 434.720 C 88.861 436.215 90.288 438.240 91.250 439.220 C 92.213 440.199 93.000 441.830 93.000 442.845 C 93.000 443.860 93.900 445.505 95.000 446.500 C 96.100 447.495 97.000 449.106 97.000 450.078 C 97.000 451.051 98.013 453.122 99.250 454.681 C 102.313 458.540 103.758 460.878 105.628 465.000 C 106.501 466.925 107.842 468.860 108.608 469.300 C 109.373 469.740 110.000 470.942 110.000 471.973 C 110.000 473.003 111.125 475.184 112.500 476.818 C 113.875 478.452 115.000 480.485 115.000 481.335 C 115.000 482.186 115.501 483.192 116.113 483.570 C 116.726 483.948 118.076 486.113 119.115 488.379 C 120.154 490.646 122.335 494.300 123.962 496.500 C 125.590 498.700 127.560 501.888 128.341 503.585 C 131.146 509.683 148.317 526.000 151.928 526.000 C 152.383 526.000 153.373 526.745 154.128 527.655 C 154.882 528.565 156.850 529.942 158.500 530.715 C 160.150 531.488 162.625 532.761 164.000 533.545 C 165.375 534.329 167.487 534.977 168.693 534.985 C 169.899 534.993 172.374 535.847 174.193 536.883 C 176.320 538.094 180.890 539.076 187.000 539.633 C 199.306 540.754 401.691 540.728 413.500 539.603 C 419.219 539.059 423.637 538.063 425.618 536.873 C 427.333 535.843 429.682 535.000 430.838 535.000 C 433.357 535.000 444.248 529.611 446.003 527.497 C 446.686 526.673 447.617 526.000 448.072 526.000 C 451.628 526.000 468.283 510.252 471.624 503.730 C 472.534 501.953 473.687 500.235 474.186 499.912 C 475.093 499.325 477.045 496.032 480.953 488.500 C 482.095 486.300 484.132 482.700 485.479 480.500 C 486.827 478.300 488.594 475.114 489.407 473.420 C 490.220 471.727 491.585 469.759 492.442 469.048 C 493.299 468.337 494.000 467.086 494.000 466.267 C 494.000 464.520 499.990 455.000 501.089 455.000 C 501.503 455.000 502.154 453.538 502.537 451.750 C 502.920 449.963 504.081 447.695 505.116 446.711 C 506.152 445.727 507.000 444.325 507.000 443.596 C 507.000 442.867 507.839 441.197 508.865 439.885 C 509.891 438.573 512.159 434.816 513.905 431.535 C 515.651 428.254 517.701 424.879 518.462 424.035 C 519.222 423.191 520.153 421.263 520.530 419.750 C 520.908 418.238 521.634 417.000 522.144 417.000 C 522.654 417.000 523.970 415.088 525.070 412.750 C 527.649 407.264 529.308 404.435 531.221 402.257 C 532.069 401.291 533.098 399.375 533.506 398.000 C 533.914 396.625 535.092 394.695 536.124 393.711 C 537.156 392.727 538.000 391.072 538.000 390.032 C 538.000 388.993 538.579 387.548 539.287 386.821 C 541.177 384.882 546.237 376.523 550.982 367.500 C 552.139 365.300 554.187 361.700 555.534 359.500 C 556.881 357.300 558.551 354.375 559.245 353.000 C 560.522 350.470 562.410 347.401 566.660 340.946 C 567.947 338.992 569.000 336.652 569.000 335.746 C 569.000 334.840 569.627 333.740 570.392 333.300 C 571.158 332.860 572.511 330.925 573.400 329.000 C 574.288 327.075 576.113 323.700 577.456 321.500 C 580.805 316.013 582.000 313.221 582.000 310.883 C 582.000 309.790 582.867 307.232 583.927 305.198 C 584.987 303.164 586.346 297.450 586.947 292.500 C 587.548 287.550 588.148 282.600 588.281 281.500 C 588.414 280.400 587.965 276.800 587.282 273.500 C 586.600 270.200 586.032 265.570 586.021 263.210 C 586.009 260.851 585.100 257.156 584.000 255.000 C 582.900 252.844 582.000 249.997 582.000 248.675 C 582.000 247.352 581.182 245.197 580.183 243.885 C 579.183 242.573 577.778 240.038 577.061 238.250 C 576.344 236.463 575.379 235.000 574.917 235.000 C 574.455 235.000 573.605 233.246 573.028 231.103 C 572.451 228.959 571.351 226.965 570.583 226.670 C 569.816 226.376 568.884 224.750 568.513 223.057 C 568.141 221.364 567.311 219.422 566.668 218.740 C 564.538 216.479 560.000 209.410 560.000 208.351 C 560.000 207.779 559.169 206.558 558.153 205.639 C 557.138 204.720 555.770 202.175 555.113 199.984 C 554.457 197.793 553.528 196.000 553.049 196.000 C 552.570 196.000 551.204 193.988 550.014 191.528 C 548.823 189.069 546.764 185.457 545.437 183.502 C 544.110 181.548 542.743 178.823 542.398 177.448 C 542.052 176.072 540.922 174.493 539.885 173.938 C 538.848 173.384 538.000 172.106 538.000 171.100 C 538.000 170.093 537.162 168.197 536.138 166.885 C 535.114 165.573 532.776 161.800 530.941 158.500 C 529.107 155.200 527.020 152.140 526.303 151.700 C 525.586 151.260 525.000 149.798 525.000 148.450 C 525.000 147.103 524.082 145.082 522.960 143.960 C 521.838 142.838 520.496 140.926 519.977 139.710 C 519.459 138.495 517.902 135.700 516.518 133.500 C 515.134 131.300 513.074 127.700 511.940 125.500 C 508.214 118.273 506.208 114.887 504.593 113.102 C 503.717 112.134 502.999 110.703 502.999 109.921 C 502.998 109.140 501.208 105.922 499.021 102.772 C 496.835 99.622 494.357 95.572 493.515 93.772 C 492.674 91.972 490.976 88.829 489.743 86.787 C 483.741 76.849 481.000 71.954 481.000 71.170 C 481.000 70.697 480.126 69.519 479.057 68.551 C 477.988 67.584 476.820 65.459 476.462 63.829 C 476.104 62.199 475.144 60.609 474.329 60.296 C 473.514 59.983 472.420 58.776 471.898 57.614 C 469.097 51.374 459.348 40.728 453.882 37.940 C 451.849 36.902 450.030 35.704 449.842 35.277 C 449.248 33.927 441.458 29.000 439.919 29.000 C 439.108 29.000 437.434 28.292 436.199 27.427 C 434.963 26.561 430.026 24.658 425.226 23.197 L 416.500 20.540 301.000 20.392 C 217.918 20.286 184.377 20.562 181.500 21.373 M 424.280 37.250 C 427.458 38.763 430.876 40.000 431.875 40.000 C 432.873 40.000 434.505 40.900 435.500 42.000 C 436.495 43.100 437.779 44.000 438.351 44.000 C 440.923 44.000 456.998 57.498 457.001 59.660 C 457.002 60.122 458.792 63.078 460.979 66.228 C 463.165 69.378 465.656 73.428 466.513 75.228 C 468.712 79.844 472.679 86.970 475.017 90.500 C 476.110 92.150 477.652 94.886 478.444 96.580 C 479.236 98.273 480.557 100.217 481.378 100.899 C 482.199 101.580 483.151 103.410 483.492 104.965 C 483.834 106.520 484.988 108.584 486.057 109.551 C 487.126 110.519 488.000 111.933 488.000 112.695 C 488.000 113.458 488.900 115.413 490.000 117.040 C 491.100 118.668 492.837 121.246 493.859 122.769 C 494.882 124.292 496.019 126.483 496.385 127.637 C 496.751 128.792 497.940 130.540 499.026 131.523 C 500.111 132.506 501.000 134.295 501.000 135.500 C 501.000 136.705 501.889 138.494 502.974 139.477 C 504.060 140.460 505.229 142.147 505.572 143.226 C 506.310 145.552 511.698 153.695 513.053 154.533 C 513.574 154.855 514.000 156.039 514.000 157.165 C 514.000 158.290 515.125 160.548 516.500 162.182 C 517.875 163.816 519.000 165.964 519.000 166.954 C 519.000 167.945 519.701 169.337 520.558 170.048 C 521.415 170.759 522.781 172.727 523.594 174.420 C 526.349 180.160 528.204 183.204 530.105 185.105 C 531.147 186.147 532.000 187.830 532.000 188.845 C 532.000 189.860 532.900 191.505 534.000 192.500 C 535.100 193.495 536.000 195.188 536.000 196.261 C 536.000 197.999 538.057 201.199 542.348 206.134 C 543.129 207.033 544.292 209.356 544.933 211.296 C 545.573 213.236 546.750 215.074 547.548 215.380 C 548.347 215.687 549.000 217.021 549.000 218.346 C 549.000 219.671 549.736 221.366 550.637 222.113 C 551.537 222.860 553.127 225.278 554.171 227.486 C 557.014 233.498 562.209 242.335 564.750 245.483 C 565.988 247.016 567.000 249.186 567.000 250.306 C 567.000 251.426 567.757 253.180 568.683 254.203 C 573.933 260.004 574.106 297.872 568.917 305.210 C 567.862 306.700 567.000 309.007 567.000 310.337 C 567.000 311.667 566.255 313.373 565.345 314.128 C 564.435 314.882 563.068 316.850 562.308 318.500 C 561.547 320.150 559.601 323.525 557.983 326.000 C 556.364 328.475 554.572 331.565 554.000 332.868 C 553.428 334.170 552.069 336.368 550.980 337.753 C 549.891 339.137 549.000 341.123 549.000 342.166 C 549.000 343.209 548.330 344.320 547.511 344.634 C 546.692 344.948 545.549 346.959 544.972 349.103 C 544.395 351.246 543.566 353.000 543.130 353.000 C 542.012 353.000 536.000 362.474 536.000 364.235 C 536.000 365.035 535.100 366.505 534.000 367.500 C 532.900 368.495 532.000 370.140 532.000 371.155 C 532.000 372.170 531.213 373.801 530.250 374.781 C 529.288 375.760 527.703 378.123 526.729 380.031 C 525.755 381.939 523.865 385.300 522.530 387.500 C 521.195 389.700 519.621 392.565 519.031 393.868 C 518.442 395.170 517.069 397.368 515.980 398.753 C 514.891 400.137 514.000 402.039 514.000 402.980 C 514.000 403.920 513.111 405.494 512.026 406.477 C 510.940 407.460 509.761 409.176 509.407 410.291 C 509.054 411.407 507.018 414.835 504.883 417.910 C 502.749 420.984 501.002 424.043 501.001 424.706 C 501.001 425.369 499.875 427.569 498.500 429.595 C 497.125 431.621 496.000 433.869 496.000 434.590 C 496.000 435.311 495.373 436.260 494.608 436.700 C 493.842 437.140 492.493 439.075 491.610 441.000 C 490.727 442.925 489.106 445.850 488.007 447.500 C 486.909 449.150 485.097 452.300 483.980 454.500 C 482.863 456.700 481.213 459.850 480.313 461.500 C 479.413 463.150 478.412 465.016 478.088 465.648 C 477.765 466.279 476.038 468.889 474.250 471.448 C 472.463 474.007 471.000 476.423 471.000 476.818 C 471.000 477.213 469.875 479.191 468.500 481.215 C 467.125 483.238 466.000 485.538 466.000 486.325 C 466.000 487.111 465.292 488.343 464.427 489.061 C 463.562 489.779 461.982 491.971 460.916 493.933 C 457.737 499.787 456.750 501.051 451.000 506.637 C 442.869 514.536 442.681 514.691 440.369 515.403 C 439.197 515.764 437.215 516.946 435.966 518.030 C 434.716 519.113 432.924 520.000 431.982 520.000 C 431.040 520.000 429.197 520.837 427.885 521.860 C 426.573 522.883 423.925 524.010 422.000 524.364 C 420.075 524.718 415.350 525.555 411.500 526.223 C 406.232 527.137 378.885 527.362 301.000 527.132 C 244.075 526.964 195.250 526.646 192.500 526.426 C 183.615 525.715 174.560 523.664 172.115 521.810 C 170.803 520.814 168.978 520.000 168.059 520.000 C 167.140 520.000 164.864 518.875 163.000 517.500 C 161.136 516.125 159.174 515.000 158.640 515.000 C 157.566 515.000 156.878 514.398 149.218 506.764 C 146.314 503.869 142.756 499.700 141.312 497.500 C 139.868 495.300 137.889 492.323 136.913 490.885 C 135.938 489.447 134.430 486.747 133.563 484.885 C 132.695 483.023 130.886 479.700 129.541 477.500 C 128.197 475.300 126.512 472.381 125.798 471.014 C 125.084 469.646 123.713 467.734 122.750 466.764 C 121.788 465.794 121.000 464.155 121.000 463.122 C 121.000 462.090 120.320 460.680 119.488 459.990 C 118.657 459.300 117.085 456.883 115.995 454.618 C 114.905 452.353 113.109 449.150 112.004 447.500 C 110.900 445.850 109.273 442.925 108.390 441.000 C 107.507 439.075 106.193 437.160 105.471 436.744 C 104.748 436.328 103.871 434.687 103.521 433.098 C 103.172 431.508 102.012 429.416 100.943 428.449 C 99.874 427.481 99.000 426.063 99.000 425.296 C 99.000 424.530 97.299 421.337 95.220 418.201 C 93.140 415.066 90.849 411.070 90.128 409.322 C 89.407 407.574 88.240 405.922 87.535 405.652 C 86.830 405.381 85.958 403.592 85.599 401.676 C 85.240 399.761 84.395 397.979 83.723 397.716 C 83.050 397.454 80.986 394.273 79.135 390.646 C 77.284 387.020 75.146 383.536 74.385 382.904 C 73.623 382.272 73.000 380.910 73.000 379.878 C 73.000 378.845 72.111 377.111 71.025 376.025 C 69.939 374.939 68.774 372.948 68.435 371.599 C 68.097 370.251 66.961 368.369 65.910 367.419 C 64.860 366.468 63.997 364.972 63.994 364.095 C 63.991 363.218 61.968 359.575 59.500 356.000 C 57.032 352.425 55.009 348.933 55.006 348.240 C 55.003 347.547 54.100 346.210 53.000 345.268 C 51.900 344.326 51.000 342.856 51.000 342.000 C 51.000 341.145 50.213 339.361 49.250 338.036 C 46.919 334.827 40.386 323.376 38.388 319.000 C 37.510 317.075 35.938 314.695 34.896 313.711 C 33.853 312.727 33.000 310.884 33.000 309.616 C 33.000 308.348 32.163 306.552 31.139 305.626 C 26.129 301.092 26.329 259.732 31.388 254.116 C 32.189 253.227 33.158 251.150 33.542 249.500 C 33.926 247.850 34.786 246.050 35.453 245.500 C 36.650 244.513 37.942 242.332 41.971 234.500 C 43.103 232.300 45.132 228.700 46.479 226.500 C 47.827 224.300 49.594 221.114 50.407 219.420 C 51.220 217.727 52.541 215.796 53.344 215.129 C 54.147 214.463 55.084 212.799 55.428 211.432 C 55.771 210.065 57.839 206.371 60.024 203.223 C 62.210 200.076 63.998 196.768 63.999 195.872 C 63.999 194.977 64.745 193.627 65.655 192.872 C 66.565 192.118 67.946 190.150 68.724 188.500 C 69.501 186.850 71.228 183.700 72.562 181.500 C 73.895 179.300 75.638 176.114 76.435 174.420 C 77.232 172.727 78.541 170.796 79.344 170.129 C 80.147 169.463 81.109 167.699 81.483 166.209 C 81.857 164.719 83.026 162.695 84.081 161.711 C 85.137 160.727 86.000 159.072 86.000 158.032 C 86.000 156.993 86.760 155.383 87.688 154.454 C 89.550 152.593 92.268 148.165 94.461 143.420 C 95.244 141.727 96.585 139.759 97.442 139.048 C 98.299 138.337 99.000 136.712 99.000 135.437 C 99.000 134.161 99.426 132.855 99.947 132.533 C 101.270 131.715 106.744 123.483 108.500 119.671 C 109.974 116.469 110.602 115.388 114.725 108.946 C 115.976 106.992 117.000 104.729 117.000 103.918 C 117.000 103.108 117.900 101.674 119.000 100.732 C 120.100 99.790 121.003 98.453 121.006 97.760 C 121.009 97.067 123.032 93.575 125.500 90.000 C 127.968 86.425 129.991 82.768 129.994 81.872 C 129.997 80.977 130.701 79.663 131.558 78.952 C 132.415 78.241 133.777 76.273 134.585 74.580 C 136.397 70.779 137.847 68.367 140.750 64.325 C 141.988 62.601 143.004 60.811 143.009 60.346 C 143.034 57.854 158.048 45.072 162.673 43.604 C 163.851 43.230 165.068 42.266 165.376 41.462 C 165.685 40.658 166.869 40.000 168.008 40.000 C 169.148 40.000 171.974 39.019 174.290 37.821 C 176.691 36.578 181.507 35.342 185.500 34.943 C 189.350 34.558 243.350 34.302 305.500 34.372 L 418.500 34.500 424.280 37.250 "/></g>
<g fill="#0153D8FE" stroke="#0153D8FE">
<path d="M 255.504 98.996 L 252.634 101.991 252.395 126.746 C 252.263 140.361 252.121 153.413 252.078 155.750 L 252.000 160.000 224.065 160.000 C 208.701 160.000 195.000 160.430 193.619 160.955 C 189.197 162.636 188.859 166.280 189.192 208.719 L 189.500 247.939 193.000 250.929 L 196.500 253.919 216.179 253.959 C 232.764 253.994 236.104 253.753 237.427 252.430 C 240.987 248.870 240.629 241.141 236.758 238.003 C 234.765 236.387 232.894 236.211 220.825 236.503 C 208.796 236.793 207.073 236.633 206.507 235.167 C 206.153 234.250 205.846 220.675 205.824 205.000 L 205.784 176.500 235.642 175.948 C 252.064 175.644 265.601 175.307 265.724 175.198 C 265.848 175.089 266.694 173.559 267.605 171.797 C 269.005 169.089 269.302 164.412 269.526 141.547 C 269.671 126.671 269.837 114.236 269.895 113.913 C 269.953 113.591 283.596 113.366 300.214 113.413 L 330.429 113.500 330.559 121.154 C 330.669 127.616 331.063 129.279 333.094 131.836 C 334.417 133.501 336.066 135.106 336.759 135.404 C 338.454 136.131 342.565 134.483 345.216 132.014 C 347.191 130.173 347.413 128.796 347.753 116.249 L 348.126 102.500 345.012 99.250 L 341.899 96.000 300.136 96.000 L 258.374 96.000 255.504 98.996 "/></g>
<g fill="#0153D8FE" stroke="#0153D8FE">
<path d="M 369.017 161.286 C 365.500 163.065 364.154 167.403 366.063 170.804 C 368.410 174.985 371.533 175.969 382.509 175.985 C 391.336 175.998 392.663 176.230 393.735 177.947 C 394.623 179.370 394.905 187.188 394.780 206.969 C 394.634 230.056 394.380 234.246 393.054 235.413 C 391.812 236.507 386.099 236.754 364.614 236.641 C 338.140 236.502 337.676 236.535 334.364 238.786 C 331.979 240.407 330.983 241.862 330.941 243.786 C 330.908 245.279 330.795 258.200 330.691 272.500 C 330.586 286.800 330.136 299.063 329.691 299.750 C 328.547 301.517 271.467 301.564 270.376 299.799 C 269.968 299.139 269.541 294.958 269.428 290.508 C 269.258 283.831 268.804 281.799 266.826 278.885 C 264.783 275.875 263.931 275.391 261.053 275.611 C 259.055 275.764 256.667 276.879 255.203 278.343 C 252.813 280.733 252.724 281.307 252.614 295.159 C 252.507 308.650 252.637 309.693 254.818 312.750 L 257.136 316.000 300.017 316.000 L 342.898 316.000 345.364 312.750 C 347.823 309.511 347.831 309.419 347.942 285.000 C 348.003 271.525 348.154 259.150 348.277 257.500 L 348.500 254.500 376.397 254.234 L 404.294 253.968 407.647 250.413 L 411.000 246.858 411.000 207.554 C 411.000 185.937 410.724 166.870 410.387 165.183 C 409.936 162.930 408.969 161.836 406.737 161.058 C 402.339 159.525 372.137 159.707 369.017 161.286 "/></g>
<g fill="#0153D8FE" stroke="#0153D8FE">
<path d="M 264.053 207.250 C 262.376 209.038 260.492 212.041 259.866 213.925 C 258.849 216.990 258.598 217.170 257.477 215.638 C 256.788 214.696 254.771 213.508 252.993 212.998 C 248.955 211.840 244.346 213.959 242.957 217.613 C 241.367 221.796 241.808 229.474 243.790 232.115 C 246.823 236.157 247.866 239.583 247.314 243.696 C 246.927 246.578 247.235 248.092 248.454 249.311 C 249.371 250.229 250.382 252.576 250.698 254.528 C 251.022 256.522 252.090 258.513 253.137 259.073 C 254.162 259.622 255.000 260.668 255.000 261.398 C 255.000 263.554 260.895 270.404 263.830 271.659 C 267.569 273.258 280.955 271.782 282.555 269.594 C 283.196 268.718 284.074 268.000 284.507 268.000 C 286.471 268.000 295.946 260.746 296.576 258.760 C 297.731 255.122 302.355 250.001 304.500 249.985 C 306.975 249.966 307.823 249.363 311.266 245.173 C 313.663 242.256 314.000 240.990 314.000 234.899 C 314.000 228.248 313.882 227.904 311.250 226.869 C 309.418 226.149 307.281 226.102 304.848 226.729 L 301.197 227.670 300.842 219.864 C 300.416 210.477 299.007 208.481 292.920 208.641 C 289.776 208.723 288.186 209.453 285.771 211.923 L 282.667 215.098 280.403 210.401 C 277.662 204.715 276.693 204.035 271.301 204.015 C 267.845 204.003 266.562 204.575 264.053 207.250 M 279.985 234.133 C 280.005 236.321 276.308 237.245 275.540 235.245 C 274.733 233.141 278.044 229.466 279.161 231.226 C 279.606 231.927 279.976 233.235 279.985 234.133 "/></g>
<g fill="#0153D8FE" stroke="#0153D8FE">
<path d="M 325.500 147.155 C 322.250 148.932 321.000 151.149 321.000 155.132 C 321.000 159.241 319.490 161.119 318.555 158.173 C 317.435 154.644 313.555 152.007 309.233 151.838 C 302.332 151.568 298.356 156.914 299.331 165.151 C 299.688 168.159 299.488 170.198 298.795 170.627 C 298.129 171.038 297.974 170.851 298.405 170.155 C 298.904 169.346 297.750 169.000 294.559 169.000 C 287.942 169.000 285.611 171.596 286.250 178.251 C 286.560 181.473 287.318 183.598 288.366 184.185 C 289.265 184.688 290.000 185.668 290.000 186.363 C 290.000 187.945 294.572 192.131 298.385 194.039 C 299.972 194.833 301.952 196.611 302.785 197.991 C 305.143 201.897 315.170 211.000 317.113 211.000 C 318.072 211.000 319.645 211.788 320.607 212.750 C 321.890 214.033 324.395 214.593 329.998 214.848 C 337.545 215.191 337.677 215.154 340.833 211.848 C 346.158 206.268 348.997 202.568 348.999 201.210 C 348.999 200.500 349.992 198.578 351.204 196.938 C 352.806 194.771 353.524 192.119 353.833 187.228 C 354.121 182.679 354.864 179.728 356.129 178.115 C 358.641 174.914 358.858 160.001 356.429 157.571 C 354.072 155.215 346.422 155.484 344.268 158.000 C 342.014 160.632 341.000 160.527 341.000 157.661 C 341.000 154.467 336.139 148.325 332.601 147.047 C 329.022 145.755 328.033 145.770 325.500 147.155 M 328.079 176.030 C 329.104 176.052 329.013 176.345 327.750 177.080 C 326.788 177.641 325.993 177.740 325.985 177.300 C 325.976 176.860 325.627 177.039 325.208 177.697 C 323.987 179.618 322.014 177.661 322.665 175.174 C 323.202 173.121 323.406 173.057 324.956 174.460 C 325.892 175.307 327.297 176.014 328.079 176.030 "/></g>
<g fill="#0153D8FE" stroke="#0153D8FE">
<path d="M 291.035 350.934 C 290.379 352.161 290.000 365.520 290.000 387.434 C 290.000 421.123 290.053 422.053 292.082 424.082 C 293.878 425.878 294.877 426.069 299.332 425.466 C 302.175 425.082 304.636 424.412 304.802 423.978 C 304.968 423.544 307.866 424.272 311.241 425.595 C 317.636 428.101 321.496 428.625 322.430 427.113 C 322.731 426.626 324.484 425.944 326.325 425.599 C 329.703 424.965 336.000 420.204 336.000 418.283 C 336.000 417.711 337.013 416.572 338.250 415.750 C 340.360 414.350 340.522 413.439 340.852 401.078 C 341.045 393.829 340.929 386.434 340.593 384.645 C 340.232 382.722 338.019 379.267 335.181 376.196 L 330.379 371.000 320.618 371.000 C 313.275 371.000 310.486 371.372 309.357 372.500 C 306.120 375.737 305.679 374.290 306.310 362.515 C 307.025 349.159 306.923 349.000 297.601 349.000 C 293.156 349.000 291.867 349.380 291.035 350.934 M 322.250 386.188 C 324.998 387.242 325.000 387.248 325.000 397.324 C 325.000 407.308 324.969 407.436 321.804 410.702 C 317.647 414.992 312.878 415.216 308.805 411.313 C 306.158 408.777 306.000 408.142 306.000 400.035 C 306.000 390.381 307.174 387.697 312.378 385.445 C 315.502 384.094 317.101 384.214 322.250 386.188 "/></g>
<g fill="#0153D8FE" stroke="#0153D8FE">
<path d="M 163.912 355.088 C 161.410 357.590 159.000 363.058 159.000 366.233 C 159.000 367.496 158.132 370.149 157.071 372.129 C 156.010 374.109 154.835 377.477 154.460 379.614 C 154.085 381.751 152.928 384.988 151.889 386.807 C 150.850 388.626 150.000 391.688 150.000 393.612 C 150.000 395.536 149.133 399.013 148.073 401.340 C 147.013 403.666 145.817 406.904 145.415 408.535 C 145.013 410.166 144.113 412.400 143.416 413.500 C 141.117 417.126 140.657 422.514 142.489 424.346 C 144.160 426.017 149.513 426.505 153.739 425.373 C 156.843 424.541 159.660 419.483 160.489 413.250 L 161.188 408.000 170.553 408.000 C 179.477 408.000 180.039 408.129 182.460 410.740 C 184.421 412.855 185.000 414.536 185.000 418.117 C 185.000 420.965 185.564 423.223 186.461 423.967 C 188.693 425.820 195.346 426.371 199.383 425.038 C 203.437 423.701 203.872 422.050 201.556 416.784 C 200.761 414.978 199.849 411.858 199.529 409.850 C 199.209 407.843 198.284 405.651 197.474 404.978 C 196.663 404.305 196.000 402.447 196.000 400.847 C 196.000 399.248 194.875 395.267 193.500 392.000 C 192.125 388.733 191.000 385.070 191.000 383.859 C 191.000 382.648 190.297 380.881 189.439 379.932 C 188.580 378.983 187.485 375.430 187.005 372.036 C 186.525 368.642 185.540 365.154 184.816 364.284 C 184.092 363.415 183.050 360.875 182.500 358.640 C 181.365 354.028 179.809 353.262 171.250 353.100 C 167.173 353.022 165.534 353.466 163.912 355.088 M 172.006 374.250 C 172.010 374.938 172.733 376.850 173.615 378.500 C 174.766 380.656 178.000 392.531 178.000 394.604 C 178.000 394.662 175.863 394.575 173.250 394.410 C 170.638 394.246 167.986 394.086 167.357 394.055 C 165.247 393.953 165.126 391.235 167.071 387.607 C 168.132 385.627 169.000 382.937 169.000 381.629 C 169.000 377.787 170.179 373.000 171.125 373.000 C 171.606 373.000 172.003 373.563 172.006 374.250 "/></g>
<g fill="#0153D8FE" stroke="#0153D8FE">
<path d="M 365.000 372.000 C 365.000 372.550 364.168 373.000 363.151 373.000 C 361.056 373.000 352.000 381.736 352.000 383.758 C 352.000 384.485 351.043 386.956 349.873 389.250 C 348.079 392.765 347.837 394.512 348.328 400.373 C 348.649 404.198 349.345 407.595 349.876 407.924 C 350.407 408.252 351.170 409.866 351.572 411.510 C 351.974 413.155 354.563 416.843 357.327 419.706 C 364.519 427.160 372.735 429.016 383.889 425.706 C 389.739 423.971 393.419 420.989 398.335 414.000 C 401.424 409.608 401.500 409.235 401.500 398.500 C 401.500 386.660 400.877 384.947 393.993 377.875 C 388.053 371.773 385.927 371.000 375.096 371.000 C 369.032 371.000 365.000 371.399 365.000 372.000 M 379.462 385.165 C 381.190 385.952 382.394 387.653 383.178 390.415 C 383.815 392.662 384.711 394.928 385.169 395.450 C 386.552 397.031 386.113 400.485 383.877 405.623 C 381.011 412.205 379.248 414.000 375.650 414.000 C 372.292 414.000 367.000 409.725 367.000 407.013 C 367.000 406.126 366.460 404.860 365.800 404.200 C 365.140 403.540 365.028 403.000 365.550 403.001 C 366.906 403.001 366.532 396.132 365.099 394.699 C 364.167 393.767 364.190 393.500 365.200 393.500 C 365.915 393.500 366.725 391.998 367.000 390.163 C 367.786 384.917 373.707 382.543 379.462 385.165 "/></g>
<g fill="#0153D8FE" stroke="#0153D8FE">
<path d="M 405.309 372.636 C 404.964 373.536 405.212 374.998 405.861 375.886 C 406.510 376.774 407.755 379.075 408.628 381.000 C 409.501 382.925 410.792 384.832 411.496 385.237 C 412.200 385.643 413.080 387.182 413.450 388.658 C 413.821 390.134 414.996 392.451 416.062 393.806 C 417.128 395.161 418.000 397.048 418.000 398.000 C 418.000 398.952 417.128 400.839 416.062 402.194 C 414.996 403.549 413.821 405.866 413.450 407.342 C 413.080 408.818 412.218 410.357 411.536 410.763 C 409.746 411.827 405.000 420.724 405.000 423.016 C 405.000 425.414 408.554 426.457 414.159 425.706 C 418.984 425.058 422.650 421.907 423.559 417.624 C 423.924 415.906 424.917 413.713 425.766 412.750 C 427.379 410.922 430.000 410.374 430.000 411.865 C 430.000 412.341 431.013 414.011 432.250 415.577 C 433.488 417.143 434.950 419.773 435.500 421.421 C 436.604 424.731 438.931 425.741 445.816 425.900 C 453.071 426.068 455.740 423.580 452.339 419.822 C 450.594 417.894 448.900 415.172 446.851 411.000 C 446.175 409.625 444.630 407.375 443.417 406.000 C 439.910 402.026 439.525 397.978 442.270 393.934 C 443.559 392.034 445.303 389.134 446.144 387.490 C 446.986 385.845 449.087 381.923 450.813 378.772 C 453.818 373.288 453.870 373.001 452.042 372.022 C 450.991 371.460 447.377 371.000 444.011 371.000 L 437.890 371.000 435.391 376.250 C 431.237 384.977 429.916 387.066 428.936 386.460 C 428.421 386.142 428.000 385.078 428.000 384.096 C 428.000 383.114 427.100 381.495 426.000 380.500 C 424.900 379.505 424.000 377.960 424.000 377.068 C 424.000 376.175 423.299 374.445 422.443 373.223 C 421.071 371.263 420.002 371.000 413.412 371.000 C 407.414 371.000 405.813 371.323 405.309 372.636 "/></g>
<g fill="#0153D8FE" stroke="#0153D8FE">
<path d="M 234.667 371.667 C 233.386 372.948 234.016 375.704 236.000 377.500 C 237.100 378.495 238.000 380.080 238.000 381.020 C 238.000 381.961 238.828 383.803 239.841 385.115 C 246.830 394.171 247.806 398.749 243.841 403.885 C 242.828 405.197 242.000 406.814 242.000 407.480 C 242.000 408.145 241.100 409.505 240.000 410.500 C 238.900 411.495 238.000 412.700 238.000 413.176 C 238.000 413.653 236.862 415.763 235.471 417.864 C 231.410 424.001 234.253 426.900 243.159 425.706 C 248.344 425.010 251.868 421.678 252.660 416.722 C 253.118 413.861 253.954 412.522 255.812 411.676 C 257.788 410.776 258.434 410.803 258.766 411.799 C 259.000 412.500 260.273 414.360 261.596 415.931 C 262.918 417.503 264.000 419.681 264.000 420.772 C 264.000 424.216 266.801 425.504 274.161 425.444 C 281.331 425.385 284.263 424.038 282.478 421.622 C 279.236 417.236 275.356 411.120 274.310 408.750 C 273.643 407.238 272.643 406.000 272.088 406.000 C 271.534 406.000 270.568 404.291 269.943 402.203 C 268.884 398.668 269.072 397.893 272.676 390.953 C 276.778 383.054 279.665 378.346 281.737 376.179 C 284.798 372.976 281.960 371.000 274.300 371.000 C 267.551 371.000 264.000 373.015 264.000 376.845 C 264.000 377.860 263.100 379.505 262.000 380.500 C 260.900 381.495 260.000 383.140 260.000 384.155 C 260.000 386.743 258.124 386.456 257.079 383.709 C 256.600 382.449 255.486 380.819 254.604 380.086 C 253.722 379.354 253.000 377.910 253.000 376.878 C 253.000 372.903 249.492 371.000 242.167 371.000 C 238.408 371.000 235.033 371.300 234.667 371.667 "/></g>
<g fill="#0153D8FE" stroke="#0153D8FE">
<path d="M 209.767 372.250 C 208.346 373.349 208.172 376.571 208.326 398.976 L 208.500 424.452 211.092 425.363 C 213.845 426.332 221.536 425.542 223.939 424.045 C 225.127 423.305 225.385 418.836 225.413 398.474 C 225.445 375.299 225.331 373.715 223.532 372.400 C 221.156 370.662 211.948 370.562 209.767 372.250 "/></g>
<g fill="#0153D8FE" stroke="#0153D8FE">
<path d="M 209.491 350.383 C 206.474 352.589 206.943 358.694 210.356 361.630 C 216.549 366.957 226.480 363.140 226.194 355.541 C 226.116 353.466 225.535 351.145 224.904 350.384 C 223.358 348.522 212.037 348.521 209.491 350.383 "/></g>
<g fill="#F8FCFF4C" stroke="#F8FCFF4C">
<path d="M 251.615 103.561 C 250.921 105.370 250.754 160.579 251.445 159.888 C 251.690 159.643 251.967 146.509 252.060 130.701 C 252.154 114.892 251.953 102.679 251.615 103.561 "/></g>
<g fill="#F8FCFF4C" stroke="#F8FCFF4C">
<path d="M 251.646 283.191 C 250.864 286.112 250.806 306.332 251.575 308.334 C 251.891 309.157 252.175 303.318 252.207 295.357 C 252.238 287.396 251.986 281.921 251.646 283.191 "/></g>
<g fill="#F8FCFF4C" stroke="#F8FCFF4C">
<path d="M 348.064 116.250 C 347.864 122.713 347.682 128.563 347.660 129.250 C 347.637 129.938 347.945 129.797 348.344 128.939 C 348.743 128.080 348.925 122.230 348.748 115.939 L 348.428 104.500 348.064 116.250 "/></g>
<g fill="#F8FCFF4C" stroke="#F8FCFF4C">
<path d="M 208.500 236.050 C 210.445 236.837 221.749 237.367 220.917 236.632 C 220.688 236.430 217.350 236.034 213.500 235.753 C 209.494 235.460 207.356 235.587 208.500 236.050 "/></g>
<g fill="#F8FCFF4C" stroke="#F8FCFF4C">
<path d="M 351.500 235.962 C 350.326 236.444 352.183 236.565 356.000 236.256 C 359.575 235.966 362.688 235.565 362.917 235.365 C 363.759 234.627 353.435 235.167 351.500 235.962 "/></g>
</svg>
